<svg width="51" height="51" viewBox="0 0 51 51" fill="none" xmlns="http://www.w3.org/2000/svg">
<path d="M19.125 40.375C8.5 43.5625 8.5 35.0626 4.25 34.0001M34 46.75V38.5263C34.0797 37.513 33.9428 36.4944 33.5984 35.5381C33.254 34.5818 32.71 33.7098 32.0025 32.9801C38.675 32.2363 45.6875 29.7076 45.6875 18.1051C45.687 15.1382 44.5457 12.2851 42.5 10.1363C43.4687 7.54063 43.4002 4.67154 42.3087 2.12505C42.3087 2.12505 39.8013 1.3813 34 5.27005C29.1295 3.95005 23.9955 3.95005 19.125 5.27005C13.3237 1.3813 10.8163 2.12505 10.8163 2.12505C9.7248 4.67154 9.65631 7.54063 10.625 10.1363C8.56402 12.301 7.42161 15.1799 7.4375 18.1688C7.4375 29.6863 14.45 32.2151 21.1225 33.0438C20.4234 33.7662 19.8842 34.6278 19.54 35.5724C19.1959 36.517 19.0545 37.5234 19.125 38.5263V46.75" stroke="black" stroke-width="2" stroke-linecap="round" stroke-linejoin="round"/>
</svg>
