<svg width="51" height="51" viewBox="0 0 51 51" fill="none" xmlns="http://www.w3.org/2000/svg">
<path d="M36.125 4.25H14.875C9.00697 4.25 4.25 9.00697 4.25 14.875V36.125C4.25 41.993 9.00697 46.75 14.875 46.75H36.125C41.993 46.75 46.75 41.993 46.75 36.125V14.875C46.75 9.00697 41.993 4.25 36.125 4.25Z" stroke="black" stroke-width="2" stroke-linecap="round" stroke-linejoin="round"/>
<path d="M33.9999 24.1612C34.2621 25.9297 33.96 27.7359 33.1366 29.3228C32.3132 30.9098 31.0103 32.1967 29.4133 33.0005C27.8163 33.8043 26.0066 34.0841 24.2414 33.8C22.4763 33.516 20.8456 32.6826 19.5814 31.4184C18.3172 30.1542 17.4838 28.5235 17.1998 26.7584C16.9157 24.9932 17.1955 23.1834 17.9993 21.5865C18.8031 19.9895 20.09 18.6866 21.677 17.8632C23.2639 17.0397 25.0701 16.7377 26.8386 16.9999C28.6426 17.2674 30.3127 18.108 31.6022 19.3976C32.8918 20.6871 33.7324 22.3572 33.9999 24.1612Z" stroke="black" stroke-width="2" stroke-linecap="round" stroke-linejoin="round"/>
<path d="M37.1875 13.8125H37.2088" stroke="black" stroke-width="2" stroke-linecap="round" stroke-linejoin="round"/>
</svg>
